<?xml version="1.0" standalone="no"?>
<!DOCTYPE svg PUBLIC "-//W3C//DTD SVG 20010904//EN"
 "http://www.w3.org/TR/2001/REC-SVG-20010904/DTD/svg10.dtd">
<svg version="1.0" xmlns="http://www.w3.org/2000/svg"
 width="300.000000pt" height="180.000000pt" viewBox="0 0 300.000000 180.000000"
 preserveAspectRatio="xMidYMid meet">
<metadata>
Created by potrace 1.10, written by Peter Selinger 2001-2011
</metadata>
<g transform="translate(0.000000,180.000000) scale(0.100000,-0.100000)"
fill="#000000" stroke="none">
<path d="M859 924 c-9 -11 -10 -20 -2 -32 14 -24 54 -27 70 -7 28 40 -36 77
-68 39z"/>
<path d="M2359 924 c-17 -21 0 -48 34 -52 32 -4 56 31 36 54 -15 19 -53 18
-70 -2z"/>
<path d="M2030 898 c0 -13 4 -30 9 -38 15 -23 2 -31 -24 -14 -43 28 -109 -11
-121 -71 -7 -37 16 -89 45 -105 26 -14 74 -13 89 2 9 9 12 9 12 0 0 -7 13 -12
30 -12 l30 0 0 130 0 130 -35 0 c-30 0 -35 -3 -35 -22z m42 -77 c-7 -30 -9
-32 -21 -17 -12 14 -11 19 5 35 10 10 20 18 21 17 1 -1 -2 -16 -5 -35z m-42
-41 c15 -28 -4 -60 -35 -60 -18 0 -26 7 -31 25 -12 48 44 77 66 35z"/>
<path d="M179 903 c0 -5 -1 -60 -1 -123 l0 -115 63 -3 c73 -4 141 18 164 51
20 28 19 111 -1 142 -8 13 -33 30 -55 39 -40 16 -168 22 -170 9z m66 -43 c3
-5 18 -10 33 -10 44 0 72 -26 72 -65 0 -39 -29 -65 -72 -65 -27 0 -27 1 -30
68 -3 57 -6 67 -20 64 -10 -2 -18 2 -18 8 0 13 27 13 35 0z"/>
<path d="M2470 864 c0 -14 -4 -23 -10 -19 -6 4 -10 -7 -10 -24 0 -17 5 -31 10
-31 6 0 10 -17 10 -39 0 -56 31 -91 80 -91 45 0 51 6 39 38 -5 14 -15 22 -26
20 -14 -2 -19 5 -21 35 -3 32 0 37 17 37 16 0 21 6 21 29 0 24 -3 28 -20 24
-16 -4 -20 0 -20 21 0 23 -4 26 -35 26 -31 0 -35 -3 -35 -26z m56 -28 c19 -19
18 -29 -6 -43 -16 -11 -21 -10 -29 4 -6 11 -6 24 0 35 12 22 16 22 35 4z"/>
<path d="M2620 865 c0 -14 -4 -25 -10 -25 -5 0 -10 -11 -10 -25 0 -14 5 -25
10 -25 6 0 10 -17 10 -39 0 -56 31 -91 80 -91 45 0 51 6 39 38 -5 14 -15 22
-26 20 -14 -2 -19 5 -21 35 -3 31 0 37 16 37 13 0 21 9 24 25 3 14 2 27 -2 30
-15 9 -50 -8 -50 -25 0 -21 -29 -35 -43 -21 -16 16 2 51 26 48 16 -1 23 4 25
21 3 19 -1 22 -32 22 -32 0 -36 -3 -36 -25z"/>
<path d="M510 849 c-57 -23 -82 -76 -61 -128 22 -51 101 -77 154 -50 32 17 32
17 13 38 -15 16 -22 18 -42 9 -18 -9 -29 -7 -49 6 -15 10 -33 15 -41 12 -16
-6 -20 39 -4 49 6 3 10 1 10 -5 0 -6 12 -2 26 9 22 17 29 18 52 8 26 -12 26
-12 -13 -15 -41 -4 -63 -21 -42 -34 7 -4 40 -8 75 -8 l64 0 -7 33 c-9 41 -22
57 -62 74 -37 15 -40 15 -73 2z"/>
<path d="M703 846 c-58 -26 -56 -89 5 -106 20 -5 43 -10 50 -10 6 0 12 -7 12
-16 0 -10 -6 -14 -14 -11 -8 3 -30 9 -49 12 -30 6 -36 4 -42 -15 -9 -29 -4
-32 53 -38 67 -6 112 17 112 58 0 42 -37 65 -92 56 -36 -6 -39 -5 -29 8 7 8 9
21 5 28 -6 10 -5 11 8 1 8 -7 17 -11 20 -8 2 3 18 1 35 -4 27 -8 32 -6 41 15
13 27 10 30 -43 38 -25 3 -52 0 -72 -8z"/>
<path d="M1062 851 c-8 -5 -33 -6 -55 -4 l-42 5 1 -93 1 -94 34 0 c33 0 34 0
31 42 -4 50 11 83 38 83 16 0 20 7 20 35 0 36 -5 41 -28 26z"/>
<path d="M1154 844 c-48 -23 -69 -88 -44 -135 24 -45 115 -64 158 -33 22 15
22 17 7 34 -14 15 -21 17 -41 8 -18 -8 -31 -8 -50 1 -39 17 -22 25 51 22 64
-2 65 -2 65 24 0 39 -18 65 -55 81 -43 17 -52 17 -91 -2z m71 -46 c36 -16 31
-28 -10 -21 -28 5 -38 1 -54 -18 -11 -13 -22 -21 -26 -17 -7 7 47 68 59 68 3
0 17 -5 31 -12z"/>
<path d="M1421 851 c-7 -5 -31 -6 -52 -4 l-39 6 0 -97 0 -96 35 0 35 0 0 64
c0 49 4 65 16 70 27 10 34 -3 34 -70 l0 -64 35 0 35 0 0 59 c0 40 5 63 15 71
27 23 45 -5 45 -71 l0 -59 35 0 35 0 0 65 c0 81 -14 111 -57 126 -27 9 -38 8
-58 -5 -21 -14 -27 -14 -52 -1 -32 17 -43 18 -62 6z"/>
<path d="M1720 848 c-44 -12 -44 -12 -31 -36 9 -17 18 -19 51 -15 30 4 45 1
59 -11 15 -13 20 -14 24 -4 3 7 6 -3 6 -22 l1 -35 -20 25 c-15 20 -27 24 -59
24 -23 -1 -48 -7 -56 -14 -21 -17 -19 -63 3 -83 22 -20 73 -22 90 -5 9 9 12 9
12 0 0 -7 13 -12 30 -12 l30 0 0 71 c0 83 -9 103 -51 118 -37 13 -42 13 -89
-1z m80 -118 c0 -15 -35 -29 -49 -20 -8 4 -10 13 -7 19 9 14 56 15 56 1z"/>
<path d="M2194 846 c-106 -47 -70 -186 47 -186 26 0 62 12 78 26 2 2 -4 13
-14 24 -14 15 -22 17 -38 9 -14 -8 -26 -8 -43 0 -40 18 -27 26 37 23 34 -2 65
0 69 5 4 4 3 23 -2 40 -15 55 -79 83 -134 59z m86 -66 c0 -6 -63 -2 -85 5 -5
1 1 7 15 13 24 9 70 -2 70 -18z m-91 -31 c-12 -23 -34 -26 -25 -3 3 9 6 23 6
31 0 13 3 13 15 3 11 -9 12 -17 4 -31z"/>
<path d="M860 755 l0 -95 35 0 35 0 0 95 0 95 -35 0 -35 0 0 -95z"/>
<path d="M2360 755 l0 -95 35 0 35 0 0 95 0 95 -35 0 -35 0 0 -95z"/>
</g>
</svg>
